<?xml version="1.0" encoding="UTF-8" standalone="no"?><svg height="155.62" width="922.90" version="1.0" viewBox="0 0 4983.66 248.99" xmlns="http://www.w3.org/2000/svg"><path d="m 4967.03,-52.08 c -26.67,-48.33 -84.16,-84.98 -146.6,-84.98 -54.92,0 -103.22,22.49 -103.22,80.80 0,49.10 60.81,82.41 124.11,123.24 69.08,43.29 140.73,96.55 140.73,189.03 0,120.75 -117.41,194.84 -253.16,194.84 -55.8,0 -114.07,-10.81 -179.85,-35.79 l 10.79,-160.73 c 31.67,64.15 90.82,114.92 178.19,114.92 67.47,0 117.41,-32.45 117.41,-89.10 0,-48.30 -40.84,-78.26 -90.75,-108.22 -104.95,-63.27 -171.52,-114.11 -171.52,-205.68 0,-137.43 114.89,-183.22 233.96,-183.22 69.08,0 112.43,12.50 156.53,12.50 z m -582.05,144.02 c -15.04,25.00 -34.11,59.09 -45.84,84.12 -9.96,47.44 -14.96,110.77 -14.96,180.68 0,29.15 5,68.27 18.31,81.61 h -174.01 c 30.76,-29.13 43.3,-208.12 41.66,-264.77 -23.32,-80.75 -55.02,-158.21 -103.3,-252.33 -30.74,-59.09 -66.59,-114.94 -89.08,-125.73 39.12,-3.29 89.08,-5.81 113.26,-5.81 43.27,0 54.97,5.81 81.64,64.12 41.55,94.11 72.37,164.82 90.71,217.33 44.16,-69.13 74.95,-116.58 114.92,-181.53 9.99,-15.82 18.32,-35.79 18.32,-54.96 0,-15.02 -2.52,-31.64 -9.16,-39.14 h 172.38 c -33.31,7.49 -183.22,243.17 -214.85,296.42 m -605.38,-145.65 -103.22,223.94 h 168.17 z m 202.36,497.88 c -54.99,0 -59.12,-1.63 -103.27,-153.18 l -15.8,-55.8 c -26.61,12.47 -74.14,18.31 -149.88,18.31 h -76.61 l -13.33,28.30 c -19.15,42.52 -44.96,92.40 -44.96,127.45 0,8.32 0.83,17.45 4.18,29.13 h -454.67 c 25.84,-29.13 34.16,-123.22 46.64,-293.96 l 2.49,-40.77 c 6.67,-97.43 11.73,-172.38 10.85,-224.80 -0.83,-43.29 -5.01,-70.79 -16.66,-83.26 h 175.73 c -25.01,19.17 -34.19,122.38 -45.82,293.13 l -3.34,40.77 c -4.18,63.29 -12.48,128.22 -12.48,191.52 0,29.10 11.65,35.77 41.66,35.77 106.54,0 133.24,-2.49 181.49,-34.96 29.96,-54.97 64.15,-124.10 97.4,-195.7 l 45.04,-95.75 c 42.44,-89.93 84.05,-181.56 84.05,-199.01 0,-12.53 -3.32,-24.15 -8.28,-35.82 h 139.88 c 0,0 56.6,209.86 69.1,254.79 l 27.45,101.61 c 47.44,170.72 77.46,253.96 117.44,286.44 -33.37,4.17 -80.81,5.81 -98.3,5.81 m -1133.26,6.69 c -165.71,0 -261.49,-136.55 -261.49,-289.76 0,-213.15 115.73,-378.09 336.41,-378.09 69.1,0 101.61,12.50 157.36,12.50 l -16.63,164.05 c -31.65,-57.46 -83.3,-96.60 -152.38,-96.60 -137.38,0 -193.18,148.25 -193.18,275.65 0,138.21 77.46,213.96 180.68,213.96 55.8,0 104.9,-14.99 187.37,-72.42 -33.31,106.62 -110.77,170.72 -238.14,170.72 m -574.54,-577.06 c -15.83,0 -35.03,0 -49.97,1.66 -5,27.47 -9.18,74.94 -15.02,151.52 l -3.34,45.01 c 8.38,1.68 19.17,2.54 29.18,2.54 79.9,0 134.89,-48.35 134.89,-121.58 0,-50.01 -34.96,-79.14 -95.74,-79.14 m 232.27,592.05 c -47.44,0 -59.12,-7.52 -74.92,-29.18 l -179.87,-249.81 c -14.17,-19.14 -24.98,-34.96 -47.45,-34.96 h -4.17 l -3.3,48.30 c -4.2,65.78 -6.69,118.29 -6.69,157.41 0.83,43.29 5.84,69.90 17.51,80.75 h -174.04 c 24.96,-22.49 34.08,-97.43 48.28,-293.96 l 2.51,-40.78 c 6.67,-96.57 11.68,-171.54 10.82,-223.97 -0.86,-45.81 -5.81,-74.14 -18.34,-84.12 h 237.31 c 77.43,0 184.02,13.36 184.02,139.06 0,103.22 -69.13,159.87 -154.86,186.49 8.32,7.52 23.29,26.66 32.48,38.34 l 130.71,173.20 c 81.61,107.42 88.25,112.40 117.44,127.39 -36.66,4.15 -85.76,5.83 -117.44,5.83 m -810.97,-519.57 -104.15,223.94 h 169.03 z m 202.29,497.88 c -54.92,0 -59.09,-1.63 -103.22,-153.18 l -15.82,-55.79 c -26.7,12.47 -74.14,18.31 -149.92,18.31 h -76.6 l -13.31,28.30 c -13.33,30.01 -45.81,91.65 -44.98,127.45 0,8.32 0.83,16.65 4.17,29.13 h -154.03 c 44.12,-44.12 99.92,-146.54 177.36,-312.25 l 44.98,-95.74 c 40.78,-86.59 84.1,-184.85 84.1,-199.02 0,-12.53 -3.29,-24.15 -8.33,-35.82 h 139.93 c 0,0 36.58,139.06 69.08,254.79 l 27.47,101.61 c 47.47,170.72 77.44,253.96 117.41,286.44 -35.8,4.15 -80.78,5.78 -98.29,5.78 m -792.74,-571.19 c -12.5,0 -29.13,0 -44.95,1.68 -6.67,44.95 -10.84,88.25 -14.14,135.69 0,0 -2.52,40.77 -2.52,39.11 h 16.66 c 81.61,0 156.58,-28.30 156.58,-103.19 0,-43.34 -35.83,-73.30 -111.63,-73.30 m -20.77,254.79 h -45.79 l -6.67,94.91 c -3.32,41.66 -5,76.60 -5.83,118.24 0,5.86 18.31,18.34 61.58,18.34 89.94,0 149.09,-44.95 149.09,-119.09 0,-82.44 -67.48,-112.40 -152.38,-112.40 m 9.98,310.59 H 869.39 c 28.33,-25.00 35.83,-122.41 48.31,-293.96 l 2.49,-39.95 c 6.69,-97.43 11.67,-172.37 10.84,-224.80 -0.83,-44.98 -5.84,-74.14 -18.34,-84.12 h 251.46 c 59.95,0 179.88,3.34 179.88,128.22 0,83.27 -77.46,134.89 -148.23,153.26 99.92,9.98 174.87,58.26 174.87,161.50 -0.03,111.57 -104.93,199.85 -276.46,199.85 M 363.35,-295.63 c -22.27,0 -26.88,3.88 -34.11,11.94 -2.96,-0.17 -5.94,-0.25 -8.91,-0.24 -17.13,0 -39.14,2.51 -57.91,15.07 -18.12,11.96 -26.74,33.14 -17.08,48.65 0,0 6.47,-9.50 27.79,-9.50 2.99,0 6.31,0.32 9.85,0.61 29.45,3.48 51.24,18.98 48.59,59.92 -2.35,40.91 -17.69,86.53 -80.46,87.07 0,0 -8.08,0 -16.70,-0.80 -29.21,-3.18 -38.39,-21.52 -38.39,-21.52 0,0 25.24,-6.85 25.46,-38.90 -0.21,-21.79 -19.19,-41.74 -46.58,-49.80 -9.45,-2.67 -19.24,-3.98 -29.07,-3.90 -32.29,0 -68.54,13.52 -92.99,45.43 -55.42,73.17 -59.92,179.84 -46.40,279.05 13.60,99.41 76.65,191.49 78.50,194.01 1.33,1.76 2.54,2.73 3.90,2.73 0.81,-0.05 1.57,-0.38 2.16,-0.93 27.23,-26.42 53.20,-62.54 64.31,-86.69 11.88,9.47 5.67,29.64 -0.85,51.16 -6.21,22.00 -21.31,51.22 -26.77,60.64 -5.27,9.20 -12.34,19.92 -2.83,25.51 1.11,0.63 2.38,0.95 3.66,0.91 12.21,0 40.93,-21.28 72.99,-64.02 35.87,-48.08 54.08,-90.76 54.08,-90.76 2.62,0.58 7.01,5.03 6.29,17.13 -0.48,12.29 -13.12,58.02 -37.72,100.59 -24.87,42.54 -47.84,69.16 -52.47,75.21 -2.86,3.50 -0.42,5.70 1.41,7.12 1.82,1.23 45.81,42.30 109.72,77.00 75.72,40.35 109.29,47.60 109.29,47.60 0,0 33.49,-7.06 109.21,-47.39 63.88,-34.75 108.06,-76.01 109.69,-77.40 1.84,-1.25 4.20,-3.23 1.41,-7.09 -4.36,-5.78 -27.41,-32.53 -52.23,-75.07 -24.52,-42.27 -37.64,-88.30 -37.83,-100.43 -0.50,-12.23 3.61,-16.27 6.13,-17.29 0,0 18.39,42.94 54.27,90.76 32.21,42.78 60.67,64.02 72.93,64.02 1.32,0.04 2.63,-0.27 3.80,-0.91 9.21,-5.59 2.35,-16.46 -3.05,-25.57 -5.03,-9.37 -20.34,-38.39 -26.85,-60.59 -6.23,-21.76 -12.71,-41.90 -0.61,-51.16 11.13,24.15 36.92,60.45 64.23,86.51 0.59,0.68 1.45,1.08 2.35,1.12 1.20,0 2.49,-0.93 3.61,-2.57 2.00,-2.67 65.17,-94.59 78.66,-194.17 13.54,-99.41 9.07,-205.84 -46.40,-279.05 -24.28,-31.99 -60.80,-45.59 -93.31,-45.59 -10.14,0 -19.84,1.31 -28.70,3.85 -27.60,8.3 -46.50,28.43 -46.34,50.01 0,32.05 25.38,38.90 25.38,38.90 0,0 -8.48,17.88 -38.74,21.52 -5.43,0.67 -10.90,1.01 -16.38,1.01 -22.75,0 -41.93,-7.23 -59.60,-32.18 -17.13,-24.01 -16.57,-73.47 -17.56,-89.96 -0.77,-16.73 -4.36,-54.27 -21.95,-69.58 -17.53,-15.71 -38.90,-20.99 -65.54,-22.03 -1.95,0.05 -3.69,0.05 -5.32,0.05" fill="#00aeef" /></svg>
