<?xml version="1.0" encoding="UTF-8" standalone="no"?>
<svg
   viewBox="0 0 300 100"
   width="300"
   height="100"
   version="1.1"
   xmlns="http://www.w3.org/2000/svg">
  <path fill="#ea4335" d="M 277.75 27.90 C 265.04 27.90 254.48 37.90 254.48 52.58 C 254.48 66.42 264.95 77.25 278.97 77.25 C 290.27 77.25 296.81 70.33 299.53 66.32 L 291.12 60.71 C 288.31 64.83 284.49 67.54 278.97 67.54 C 273.46 67.54 269.53 65.01 267.01 60.06 L 300 46.40 L 298.87 43.60 C 296.82 38.09 290.56 27.90 277.75 27.90 z M 103.62 27.91 C 89.98 27.91 78.87 38.28 78.87 52.59 C 78.87 66.79 89.98 77.26 103.62 77.26 C 117.26 77.26 128.38 66.79 128.38 52.59 C 128.38 38.28 117.26 27.91 103.62 27.91 z M 278.12 37.44 C 282.42 37.44 286.07 39.59 287.28 42.67 L 265.23 51.83 C 264.95 42.31 272.61 37.44 278.12 37.44 z M 103.62 37.63 C 111.10 37.63 117.54 43.71 117.54 52.59 C 117.54 61.37 111.10 67.54 103.62 67.54 C 96.15 67.54 89.70 61.38 89.70 52.59 C 89.70 43.71 96.15 37.63 103.62 37.63 z " />
  <path fill="#fbbc05" d="m 181.78,52.59 c 0,14.20 -11.11,24.67 -24.75,24.67 -13.64,0 -24.75,-10.46 -24.75,-24.67 0,-14.29 11.11,-24.67 24.75,-24.67 13.64,0 24.75,10.36 24.75,24.67 z m -10.83,0 c 0,-8.87 -6.44,-14.95 -13.91,-14.95 -7.47,0 -13.91,6.07 -13.91,14.95 0,8.78 6.44,14.95 13.91,14.95 7.47,0 13.91,-6.17 13.91,-14.95 z" />
  <path fill="#4285f4" d="M 38.87 0.62 C 17.75 0.62 1.23e-16 17.82 0 38.94 C 0 60.05 17.75 77.25 38.87 77.25 C 50.26 77.25 58.86 73.52 65.59 66.51 C 72.51 59.59 74.66 49.87 74.66 42.02 C 74.66 39.68 74.48 37.52 74.14 35.70 L 38.86 35.70 L 38.86 46.17 L 63.88 46.16 C 63.11 51.93 61.17 56.16 58.21 59.12 C 54.56 62.77 48.86 66.78 38.86 66.78 C 23.44 66.78 11.38 54.36 11.38 38.94 C 11.38 23.52 23.44 11.09 38.86 11.09 C 47.18 11.09 53.26 14.36 57.74 18.56 L 65.13 11.18 C 58.87 5.20 50.55 0.62 38.87 0.62 z M 209.30 27.91 C 196.96 27.91 185.65 38.75 185.65 52.68 C 185.65 66.51 196.96 77.25 209.30 77.25 C 215.19 77.25 219.87 74.64 222.29 71.65 L 222.67 71.65 L 222.67 75.20 C 222.67 84.64 217.63 89.66 209.50 89.66 C 202.87 89.66 198.75 84.92 197.07 80.90 L 187.63 84.83 C 190.35 91.37 197.55 99.37 209.51 99.37 C 222.21 99.37 232.96 91.93 232.96 73.70 L 232.96 29.41 L 222.67 29.41 L 222.67 33.43 L 222.29 33.43 C 219.86 30.52 215.18 27.91 209.30 27.91 z M 210.26 37.63 C 217.64 37.63 223.44 43.99 223.44 52.68 C 223.44 61.28 217.64 67.54 210.26 67.54 C 202.79 67.54 196.52 61.28 196.52 52.68 C 196.52 43.99 202.79 37.63 210.26 37.63 z " />
  <path fill="#34a853" d="M 249.93,3.43 V 75.75 H 239.36 V 3.43 Z" />
</svg>
