<?xml version="1.0" encoding="UTF-8" standalone="no"?><svg version="1.1" viewBox="0 0 600 343.20" width="600" height="343.20" xmlns="http://www.w3.org/2000/svg"><path fill="#f99c3a" d="M 96.00,0 C 94.80,0 93.60,0.00 92.40,1.20 L 1.19,92.40 C -7.79e-4,93.60 0,94.80 0,96.00 V 339.60 c 0,2.4 1.19,3.59 3.59,3.59 H 504 c 1.2,0 1.20,-10e-4 2.40,-1.20 l 92.40,-92.39 c 1.2,-1.2 1.19,-1.20 1.19,-2.40 V 3.60 C 600,1.20 598.80,0 596.40,0 Z m 93.59,94.80 h 30 c 1.2,0 2.4,1.20 0,2.40 1.2,0 1.20,1.20 1.20,2.40 V 243.60 c 0,1.2 -0.00,1.19 -1.20,2.39 0,1.2 -1.20,1.20 -2.40,1.20 h -30 c -1.2,0 -1.19,-10e-4 -2.39,-1.20 -1.2,0 -1.20,-1.19 -1.20,-2.39 v -50.40 c 0,-1.2 7.8e-4,-1.20 -1.19,-2.40 0,-1.2 -1.20,-1.19 -2.40,-1.19 h -43.19 c -1.19,0 -1.20,-7.8e-4 -2.40,1.19 -1.2,0 -1.20,1.20 -1.20,2.40 v 50.40 c 0,2.4 -1.19,3.59 -3.59,3.59 H 99.59 c -2.39,0 -3.59,-1.19 -3.59,-3.59 V 99.60 c 0,-2.4 1.19,-3.60 3.59,-3.60 H 132 c 2.4,0 3.59,1.20 3.59,3.60 v 47.99 c 0,2.4 1.19,3.59 3.59,3.59 h 43.20 c 1.2,0 1.20,-10e-4 2.40,-1.20 1.2,0 1.19,-1.19 1.19,-2.39 V 98.40 c 0,-1.2 -7.8e-4,-1.20 1.19,-2.40 0,-1.2 1.20,-1.19 2.40,-1.19 z m 66,0 H 354 c 3.6,0 5.99,1.20 9.59,2.40 3.6,2.4 6.00,3.60 8.40,6.00 2.4,2.4 4.8,4.80 6,8.40 1.2,2.4 2.40,5.99 2.40,9.59 v 57.59 c 0,4.8 -1.20,9.60 -4.80,14.40 -2.4,4.80 -7.20,8.39 -12,9.59 h -1.19 c 0,0 -1.2,-7.8e-4 0,1.19 l 24,39.60 v 2.39 c 0,1.2 -1.20,1.20 -2.40,1.20 h -37.19 c -1.2,0 -2.40,-0.00 -3.60,-1.20 -1.2,0 -2.39,-1.19 -2.39,-2.39 l -22.80,-42 c 0,-1.2 7.8e-4,-1.20 -1.19,-1.20 h -26.40 c -1.2,0 -1.20,0.00 -1.20,1.20 v 40.79 c 0,2.4 -1.19,3.59 -3.59,3.59 h -30 c -2.4,0 -3.59,-1.19 -3.59,-3.59 V 98.40 c 0,-2.4 1.19,-3.59 3.59,-3.59 z m 148.80,0 h 108 c 1.2,0 1.20,-7.8e-4 2.40,1.19 0,1.2 1.2,2.40 0,3.60 v 27.59 c 0,1.2 -10e-4,1.20 -1.20,2.40 0,1.2 -1.20,1.19 -2.40,1.19 H 480 c -1.2,0 -1.20,-7.9e-4 -2.40,1.19 -1.2,0 -1.19,1.20 -1.19,2.40 v 108 c 0,1.2 -0.00,1.20 -1.20,2.40 0,1.2 -1.19,1.19 -2.39,1.19 h -30 c -1.2,0 -1.20,7.8e-4 -2.40,-1.19 -1.2,0 -1.20,-1.20 -1.20,-2.40 v -108 C 439.19,133.20 439.2,133.2 438,132 c 0,-1.2 -1.20,-1.19 -2.40,-1.19 h -31.19 c -1.2,0 -1.20,7.7e-4 -2.40,-1.19 -1.2,0 -1.19,-1.20 -1.19,-2.40 V 98.40 c 0,-2.4 1.19,-3.59 3.59,-3.59 z M 289.19,130.80 v 37.19 H 342 v -37.19 z" /></svg>
