<?xml version="1.0" encoding="UTF-8" standalone="no"?><svg version="1.1" width="1000" height="332.02" viewBox="0 0 999.99 332.02" xmlns="http://www.w3.org/2000/svg"><path fill="#034ea2" d="M 737.91 0.00 C 660.15 0.16 570.21 8.12 475.40 24.64 C 354.82 45.64 246.32 77.00 163.53 112.16 C 168.04 111.05 172.99 110.48 178.26 110.48 C 192.91 110.48 213.12 113.99 213.12 136.51 L 213.12 143.77 L 187.34 143.77 L 187.34 137.39 C 187.34 131.75 183.77 128.01 177.73 128.01 C 171.26 128.01 168.99 131.65 168.28 134.94 C 168.04 136.12 167.89 138.31 168.39 140.39 C 171.31 152.50 210.55 158.96 214.91 180.60 C 215.34 182.81 216.28 188.65 215.02 197.58 C 212.57 214.81 197.17 221.20 178.47 221.20 C 159.03 221.20 140.88 214.25 140.88 191.20 L 140.90 183.19 L 168.63 183.19 L 168.63 193.20 C 168.63 198.88 172.56 202.59 179.05 202.59 C 185.92 202.59 188.25 199.09 189.12 195.65 C 189.59 193.71 189.90 190.49 188.89 187.98 C 183.57 174.60 146.85 168.48 142.33 147.36 C 141.24 142.17 141.35 138.03 142.10 133.38 C 143.31 125.99 146.98 120.77 152.17 117.14 C 52.49 161.18 -6.75 210.61 0.61 252.95 C 14.21 331.05 248.84 355.43 524.64 307.39 C 647.85 285.93 758.35 253.65 841.78 217.55 C 837.39 218.62 832.65 219.15 827.73 219.15 C 809.37 219.15 793.08 212.44 791.33 193.63 C 791.04 190.18 790.99 188.75 790.96 186.82 L 790.98 143.28 C 790.98 141.45 791.21 138.19 791.41 136.47 C 793.71 117.14 809.37 110.93 827.73 110.93 C 846.07 110.93 862.12 117.11 864.02 136.47 C 864.36 139.76 864.25 143.28 864.25 143.28 L 864.25 146.73 L 838.18 146.73 L 838.18 140.94 C 838.20 140.95 838.15 138.48 837.84 137.01 C 837.40 134.72 835.41 129.47 827.53 129.47 C 820.00 129.47 817.79 134.44 817.24 137.01 C 816.92 138.37 816.80 140.22 816.80 141.89 L 816.80 189.17 C 816.78 190.48 816.85 191.92 817.06 193.10 C 817.51 195.87 820.12 200.59 827.60 200.59 C 835.09 200.59 837.71 195.86 838.19 193.10 C 838.38 191.92 838.43 190.48 838.42 189.17 L 838.42 174.16 L 827.81 174.16 L 827.81 159.07 L 864.47 159.07 L 864.47 186.82 C 864.45 188.75 864.40 190.18 864.09 193.63 C 863.30 202.35 859.28 208.37 853.46 212.43 C 949.79 169.00 1006.62 120.60 999.37 79.05 C 990.46 27.80 886.37 -0.30 737.91 0.00 z M 514.54 111.05 C 529.04 111.05 549.09 114.54 549.09 136.82 L 549.09 144.01 L 523.51 144.01 L 523.51 137.69 C 523.51 132.09 520.02 128.44 514.03 128.44 C 507.62 128.44 505.40 131.99 504.67 135.31 C 504.42 136.42 504.27 138.59 504.77 140.66 C 507.66 152.64 546.50 159.04 550.84 180.48 C 551.29 182.64 552.18 188.41 550.93 197.28 C 548.52 214.35 533.26 220.66 514.76 220.66 C 495.52 220.66 477.53 213.77 477.53 190.95 L 477.57 183.05 L 505.01 183.05 L 505.03 192.97 C 505.03 198.52 508.93 202.23 515.32 202.23 C 522.16 202.23 524.46 198.78 525.31 195.35 C 525.77 193.41 526.10 190.28 525.08 187.80 C 519.82 174.55 483.45 168.47 479.00 147.57 C 477.94 142.40 478.02 138.34 478.76 133.76 C 481.45 117.05 496.36 111.05 514.54 111.05 z M 575.59 113.72 L 601.72 113.72 L 601.72 190.22 C 601.72 191.56 601.76 193.07 601.96 194.18 C 602.52 196.72 604.69 201.68 611.92 201.68 C 619.10 201.68 621.34 196.72 621.83 194.18 C 622.04 193.06 622.10 191.56 622.07 190.22 L 622.07 113.72 L 648.22 113.72 L 648.22 187.88 C 648.28 189.78 648.09 193.69 648.00 194.67 C 646.17 213.97 630.91 220.24 611.91 220.24 C 592.90 220.24 577.63 213.97 575.81 194.67 C 575.73 193.69 575.54 189.78 575.59 187.88 L 575.59 113.72 z M 251.60 113.76 L 297.58 113.76 L 316.66 217.15 L 288.86 217.15 L 275.08 123.34 L 274.50 123.34 L 260.34 217.15 L 232.42 217.15 L 251.60 113.76 z M 339.57 113.76 L 381.76 113.76 L 394.52 192.79 L 395.07 192.79 L 407.85 113.76 L 450.01 113.76 L 452.25 217.15 L 426.41 217.15 L 425.73 124.20 L 425.19 124.20 L 407.91 217.15 L 381.68 217.15 L 364.39 124.20 L 363.83 124.20 L 363.18 217.15 L 337.29 217.15 L 339.57 113.76 z M 677.06 113.76 L 715.45 113.76 L 739.22 194.94 L 739.79 194.94 L 738.37 113.76 L 763.97 113.76 L 763.97 216.07 L 727.16 216.07 L 701.62 132.11 L 701.07 132.11 L 702.49 216.07 L 677.06 216.07 L 677.06 113.76 z " /></svg>
